<svg width="24" height="24" viewBox="0 0 24 24" fill="none" xmlns="http://www.w3.org/2000/svg">
<path d="M20.0713 7.41388L9.72979 17.7553C9.6382 17.8477 9.51352 17.8996 9.38345 17.8996C9.25338 17.8996 9.1287 17.8477 9.03711 17.7553L3.77857 12.4968C3.68622 12.4053 3.63428 12.2806 3.63428 12.1504C3.63428 12.0204 3.68622 11.8957 3.77857 11.8041L4.4615 11.1212C4.55309 11.0289 4.67777 10.9769 4.80784 10.9769C4.93791 10.9769 5.06259 11.0289 5.15418 11.1212L9.37857 15.3456L18.6956 6.02852C18.8886 5.84141 19.1954 5.84141 19.3883 6.02852L20.0713 6.7212C20.1636 6.81279 20.2155 6.93747 20.2155 7.06754C20.2155 7.19761 20.1636 7.32228 20.0713 7.41388Z" fill="#3D3A41"/>
</svg>
